<svg width="35" height="35" viewBox="0 0 35 35" fill="none" xmlns="http://www.w3.org/2000/svg">
<path fill-rule="evenodd" clip-rule="evenodd" d="M17.5 0C7.83502 0 0 7.83502 0 17.5C0 27.165 7.83502 35 17.5 35C27.165 35 35 27.165 35 17.5C35 7.83502 27.165 0 17.5 0ZM13.6523 8.22299C14.6479 8.17768 14.966 8.1666 17.5008 8.1666H17.4979C20.0335 8.1666 20.3504 8.17768 21.346 8.22299C22.3396 8.26849 23.0182 8.42579 23.6132 8.6566C24.2277 8.8948 24.7469 9.21369 25.266 9.73286C25.7852 10.2516 26.1041 10.7724 26.3433 11.3862C26.5727 11.9797 26.7302 12.6579 26.7769 13.6515C26.8216 14.6471 26.8333 14.9652 26.8333 17.5C26.8333 20.0348 26.8216 20.3522 26.7769 21.3477C26.7302 22.341 26.5727 23.0194 26.3433 23.613C26.1041 24.2267 25.7852 24.7474 25.266 25.2662C24.7474 25.7854 24.2275 26.1051 23.6138 26.3435C23.02 26.5743 22.341 26.7316 21.3473 26.7771C20.3518 26.8224 20.0346 26.8335 17.4996 26.8335C14.965 26.8335 14.6471 26.8224 13.6515 26.7771C12.6581 26.7316 11.9797 26.5743 11.3859 26.3435C10.7724 26.1051 10.2516 25.7854 9.73306 25.2662C9.21408 24.7474 8.89519 24.2267 8.6566 23.6128C8.42599 23.0194 8.26868 22.3412 8.22299 21.3475C8.17787 20.352 8.1666 20.0348 8.1666 17.5C8.1666 14.9652 8.17826 14.6469 8.22279 13.6513C8.26751 12.6581 8.42501 11.9797 8.65641 11.386C8.89558 10.7724 9.21447 10.2516 9.73364 9.73286C10.2524 9.21388 10.7732 8.89499 11.387 8.6566C11.9805 8.42579 12.6587 8.26849 13.6523 8.22299Z" fill="white"/>
<path fill-rule="evenodd" clip-rule="evenodd" d="M16.6637 9.84865C16.8262 9.84839 17.0011 9.84847 17.1899 9.84856L17.501 9.84865C19.993 9.84865 20.2883 9.85759 21.2724 9.90231C22.1824 9.94393 22.6763 10.096 23.0053 10.2237C23.4409 10.3929 23.7514 10.5951 24.0779 10.9218C24.4046 11.2485 24.6068 11.5596 24.7764 11.9951C24.9041 12.3238 25.0564 12.8177 25.0978 13.7277C25.1425 14.7116 25.1522 15.0071 25.1522 17.498C25.1522 19.9888 25.1425 20.2844 25.0978 21.2683C25.0562 22.1783 24.9041 22.6722 24.7764 23.0008C24.6072 23.4364 24.4046 23.7465 24.0779 24.073C23.7512 24.3997 23.4411 24.6019 23.0053 24.7711C22.6767 24.8994 22.1824 25.0511 21.2724 25.0927C20.2885 25.1374 19.993 25.1471 17.501 25.1471C15.0087 25.1471 14.7134 25.1374 13.7295 25.0927C12.8195 25.0507 12.3256 24.8986 11.9964 24.7709C11.5608 24.6017 11.2497 24.3995 10.923 24.0728C10.5964 23.7461 10.3941 23.4358 10.2246 23C10.0968 22.6714 9.94457 22.1775 9.90315 21.2675C9.85843 20.2836 9.84949 19.9881 9.84949 17.4956C9.84949 15.0032 9.85843 14.7092 9.90315 13.7253C9.94477 12.8153 10.0968 12.3214 10.2246 11.9924C10.3937 11.5569 10.5964 11.2457 10.923 10.9191C11.2497 10.5924 11.5608 10.3902 11.9964 10.2206C12.3254 10.0923 12.8195 9.94062 13.7295 9.89881C14.5905 9.85992 14.9242 9.84826 16.6637 9.84631V9.84865ZM22.4828 11.3984C21.8645 11.3984 21.3628 11.8995 21.3628 12.518C21.3628 13.1363 21.8645 13.638 22.4828 13.638C23.1012 13.638 23.6028 13.1363 23.6028 12.518C23.6028 11.8997 23.1012 11.398 22.4828 11.398V11.3984ZM12.7077 17.5002C12.7077 14.8532 14.8538 12.7071 17.5008 12.7071H17.5006C20.1476 12.7071 22.2931 14.8532 22.2931 17.5002C22.2931 20.1472 20.1478 22.2923 17.5008 22.2923C14.8538 22.2923 12.7077 20.1472 12.7077 17.5002Z" fill="white"/>
<path fill-rule="evenodd" clip-rule="evenodd" d="M17.501 14.389C19.2192 14.389 20.6122 15.7819 20.6122 17.5002C20.6122 19.2183 19.2192 20.6113 17.501 20.6113C15.7827 20.6113 14.3899 19.2183 14.3899 17.5002C14.3899 15.7819 15.7827 14.389 17.501 14.389V14.389Z" fill="white"/>
</svg>
